<svg width="34" height="34" viewBox="0 0 34 34" fill="none" xmlns="http://www.w3.org/2000/svg">
<circle cx="17" cy="17" r="16.25" stroke="black" stroke-width="1.5"/>
<mask id="path-2-inside-1_210_2" fill="white">
<path d="M10.7054 7.56967C12.4907 7.56967 13.7994 8.211 14.6314 9.49367C15.4634 10.7763 15.8794 12.657 15.8794 15.1357C15.8794 17.6143 15.4634 19.495 14.6314 20.7777C13.7994 22.0603 12.4907 22.7017 10.7054 22.7017C8.92007 22.7017 7.61141 22.0603 6.77941 20.7777C5.94741 19.495 5.53141 17.6143 5.53141 15.1357C5.53141 12.657 5.94741 10.7763 6.77941 9.49367C7.61141 8.211 8.92007 7.56967 10.7054 7.56967ZM10.7054 9.85767C9.68274 9.85767 8.96341 10.3083 8.54741 11.2097C8.13141 12.0937 7.92341 13.4023 7.92341 15.1357C7.92341 16.869 8.13141 18.1863 8.54741 19.0877C8.96341 19.9717 9.68274 20.4137 10.7054 20.4137C11.7281 20.4137 12.4474 19.9717 12.8634 19.0877C13.2794 18.1863 13.4874 16.869 13.4874 15.1357C13.4874 13.4023 13.2794 12.0937 12.8634 11.2097C12.4474 10.3083 11.7281 9.85767 10.7054 9.85767ZM24.4854 6.03567C24.7974 6.03567 25.0747 6.12234 25.3174 6.29567C25.5774 6.45167 25.7074 6.703 25.7074 7.04967V27.4857C25.7074 27.8323 25.5774 28.0837 25.3174 28.2397C25.0747 28.413 24.7974 28.4997 24.4854 28.4997C24.1907 28.4997 23.9134 28.413 23.6534 28.2397C23.4107 28.0837 23.2894 27.8323 23.2894 27.4857V7.04967C23.2894 6.703 23.4107 6.45167 23.6534 6.29567C23.9134 6.12234 24.1907 6.03567 24.4854 6.03567ZM19.9094 6.29567C20.2041 6.29567 20.4727 6.38234 20.7154 6.55567C20.9754 6.71167 21.1054 6.963 21.1054 7.30967V26.3937C21.1054 26.7403 20.9754 26.9917 20.7154 27.1477C20.4727 27.321 20.2041 27.4077 19.9094 27.4077C19.6147 27.4077 19.3374 27.321 19.0774 27.1477C18.8347 26.9917 18.7134 26.7403 18.7134 26.3937V19.0357H14.3194V16.8517H18.7134V13.4197H14.3194V11.2357H18.7134V7.30967C18.7134 6.963 18.8347 6.71167 19.0774 6.55567C19.3374 6.38234 19.6147 6.29567 19.9094 6.29567Z"/>
</mask>
<path d="M10.7054 7.56967C12.4907 7.56967 13.7994 8.211 14.6314 9.49367C15.4634 10.7763 15.8794 12.657 15.8794 15.1357C15.8794 17.6143 15.4634 19.495 14.6314 20.7777C13.7994 22.0603 12.4907 22.7017 10.7054 22.7017C8.92007 22.7017 7.61141 22.0603 6.77941 20.7777C5.94741 19.495 5.53141 17.6143 5.53141 15.1357C5.53141 12.657 5.94741 10.7763 6.77941 9.49367C7.61141 8.211 8.92007 7.56967 10.7054 7.56967ZM10.7054 9.85767C9.68274 9.85767 8.96341 10.3083 8.54741 11.2097C8.13141 12.0937 7.92341 13.4023 7.92341 15.1357C7.92341 16.869 8.13141 18.1863 8.54741 19.0877C8.96341 19.9717 9.68274 20.4137 10.7054 20.4137C11.7281 20.4137 12.4474 19.9717 12.8634 19.0877C13.2794 18.1863 13.4874 16.869 13.4874 15.1357C13.4874 13.4023 13.2794 12.0937 12.8634 11.2097C12.4474 10.3083 11.7281 9.85767 10.7054 9.85767ZM24.4854 6.03567C24.7974 6.03567 25.0747 6.12234 25.3174 6.29567C25.5774 6.45167 25.7074 6.703 25.7074 7.04967V27.4857C25.7074 27.8323 25.5774 28.0837 25.3174 28.2397C25.0747 28.413 24.7974 28.4997 24.4854 28.4997C24.1907 28.4997 23.9134 28.413 23.6534 28.2397C23.4107 28.0837 23.2894 27.8323 23.2894 27.4857V7.04967C23.2894 6.703 23.4107 6.45167 23.6534 6.29567C23.9134 6.12234 24.1907 6.03567 24.4854 6.03567ZM19.9094 6.29567C20.2041 6.29567 20.4727 6.38234 20.7154 6.55567C20.9754 6.71167 21.1054 6.963 21.1054 7.30967V26.3937C21.1054 26.7403 20.9754 26.9917 20.7154 27.1477C20.4727 27.321 20.2041 27.4077 19.9094 27.4077C19.6147 27.4077 19.3374 27.321 19.0774 27.1477C18.8347 26.9917 18.7134 26.7403 18.7134 26.3937V19.0357H14.3194V16.8517H18.7134V13.4197H14.3194V11.2357H18.7134V7.30967C18.7134 6.963 18.8347 6.71167 19.0774 6.55567C19.3374 6.38234 19.6147 6.29567 19.9094 6.29567Z" fill="white"/>
<path d="M14.6314 20.7777L15.8898 21.594L15.8898 21.594L14.6314 20.7777ZM6.77941 20.7777L5.52096 21.594L5.52096 21.594L6.77941 20.7777ZM6.77941 9.49367L5.52096 8.67738L5.52096 8.67738L6.77941 9.49367ZM8.54741 11.2097L9.90467 11.8484L9.90934 11.8383L8.54741 11.2097ZM8.54741 19.0877L7.18543 19.7163L7.19018 19.7264L8.54741 19.0877ZM12.8634 19.0877L14.2207 19.7264L14.2253 19.7163L12.8634 19.0877ZM12.8634 11.2097L11.5014 11.8383L11.5062 11.8484L12.8634 11.2097ZM25.3174 6.29567L24.4455 7.51627L24.4943 7.55109L24.5457 7.58191L25.3174 6.29567ZM25.3174 28.2397L24.5457 26.9534L24.4943 26.9843L24.4455 27.0191L25.3174 28.2397ZM23.6534 28.2397L24.4855 26.9916L24.4751 26.9847L24.4645 26.9779L23.6534 28.2397ZM23.6534 6.29567L24.4645 7.55744L24.4751 7.55068L24.4855 7.54374L23.6534 6.29567ZM20.7154 6.55567L19.8435 7.77627L19.8923 7.81109L19.9437 7.84191L20.7154 6.55567ZM20.7154 27.1477L19.9437 25.8614L19.8923 25.8923L19.8435 25.9271L20.7154 27.1477ZM19.0774 27.1477L19.9095 25.8996L19.8991 25.8927L19.8885 25.8859L19.0774 27.1477ZM18.7134 19.0357H20.2134V17.5357H18.7134V19.0357ZM14.3194 19.0357H12.8194V20.5357H14.3194V19.0357ZM14.3194 16.8517V15.3517H12.8194V16.8517H14.3194ZM18.7134 16.8517V18.3517H20.2134V16.8517H18.7134ZM18.7134 13.4197H20.2134V11.9197H18.7134V13.4197ZM14.3194 13.4197H12.8194V14.9197H14.3194V13.4197ZM14.3194 11.2357V9.73567H12.8194V11.2357H14.3194ZM18.7134 11.2357V12.7357H20.2134V11.2357H18.7134ZM19.0774 6.55567L19.8885 7.81744L19.8991 7.81068L19.9095 7.80375L19.0774 6.55567ZM10.7054 7.56967V9.06967C12.0818 9.06967 12.8675 9.53078 13.373 10.31L14.6314 9.49367L15.8898 8.67738C14.7313 6.89123 12.8997 6.06967 10.7054 6.06967V7.56967ZM14.6314 9.49367L13.373 10.31C13.9773 11.2416 14.3794 12.7835 14.3794 15.1357H15.8794H17.3794C17.3794 12.5305 16.9495 10.311 15.8898 8.67738L14.6314 9.49367ZM15.8794 15.1357H14.3794C14.3794 17.4878 13.9773 19.0297 13.373 19.9614L14.6314 20.7777L15.8898 21.594C16.9495 19.9603 17.3794 17.7409 17.3794 15.1357H15.8794ZM14.6314 20.7777L13.373 19.9614C12.8675 20.7406 12.0818 21.2017 10.7054 21.2017V22.7017V24.2017C12.8997 24.2017 14.7313 23.3801 15.8898 21.594L14.6314 20.7777ZM10.7054 22.7017V21.2017C9.32899 21.2017 8.54326 20.7406 8.03785 19.9614L6.77941 20.7777L5.52096 21.594C6.67955 23.3801 8.51116 24.2017 10.7054 24.2017V22.7017ZM6.77941 20.7777L8.03785 19.9614C7.43352 19.0297 7.03141 17.4878 7.03141 15.1357H5.53141H4.03141C4.03141 17.7409 4.46129 19.9603 5.52096 21.594L6.77941 20.7777ZM5.53141 15.1357H7.03141C7.03141 12.7835 7.43352 11.2416 8.03785 10.31L6.77941 9.49367L5.52096 8.67738C4.46129 10.311 4.03141 12.5305 4.03141 15.1357H5.53141ZM6.77941 9.49367L8.03785 10.31C8.54326 9.53078 9.32899 9.06967 10.7054 9.06967V7.56967V6.06967C8.51116 6.06967 6.67955 6.89123 5.52096 8.67738L6.77941 9.49367ZM10.7054 9.85767V8.35767C9.97049 8.35767 9.24577 8.52154 8.60253 8.92453C7.95643 9.32932 7.49445 9.91162 7.18547 10.5811L8.54741 11.2097L9.90934 11.8383C10.0164 11.6064 10.1221 11.5127 10.1953 11.4668C10.2714 11.4191 10.4177 11.3577 10.7054 11.3577V9.85767ZM8.54741 11.2097L7.19018 10.571C6.6334 11.7541 6.42341 13.3269 6.42341 15.1357H7.92341H9.42341C9.42341 13.4778 9.62941 12.4332 9.90463 11.8484L8.54741 11.2097ZM7.92341 15.1357H6.42341C6.42341 16.9475 6.63433 18.5221 7.18547 19.7163L8.54741 19.0877L9.90934 18.4591C9.62848 17.8505 9.42341 16.7905 9.42341 15.1357H7.92341ZM8.54741 19.0877L7.19018 19.7264C7.5025 20.3901 7.96789 20.9634 8.61362 21.3602C9.25503 21.7543 9.97562 21.9137 10.7054 21.9137V20.4137V18.9137C10.4125 18.9137 10.2621 18.852 10.1842 18.8042C10.1106 18.7589 10.0083 18.6693 9.90463 18.449L8.54741 19.0877ZM10.7054 20.4137V21.9137C11.4352 21.9137 12.1558 21.7543 12.7972 21.3602C13.4429 20.9634 13.9083 20.3901 14.2206 19.7264L12.8634 19.0877L11.5062 18.449C11.4025 18.6693 11.3002 18.7589 11.2266 18.8042C11.1487 18.852 10.9983 18.9137 10.7054 18.9137V20.4137ZM12.8634 19.0877L14.2253 19.7163C14.7765 18.5221 14.9874 16.9475 14.9874 15.1357H13.4874H11.9874C11.9874 16.7905 11.7823 17.8505 11.5015 18.4591L12.8634 19.0877ZM13.4874 15.1357H14.9874C14.9874 13.3269 14.7774 11.7541 14.2206 10.571L12.8634 11.2097L11.5062 11.8484C11.7814 12.4332 11.9874 13.4778 11.9874 15.1357H13.4874ZM12.8634 11.2097L14.2253 10.5811C13.9164 9.91162 13.4544 9.32932 12.8083 8.92453C12.165 8.52154 11.4403 8.35767 10.7054 8.35767V9.85767V11.3577C10.9932 11.3577 11.1394 11.4191 11.2155 11.4668C11.2888 11.5127 11.3945 11.6064 11.5015 11.8383L12.8634 11.2097ZM24.4854 6.03567V7.53567C24.4938 7.53567 24.4966 7.53624 24.4947 7.53596C24.4926 7.53566 24.4874 7.53471 24.48 7.53239C24.4725 7.53006 24.465 7.52701 24.4581 7.52356C24.4512 7.52013 24.447 7.51729 24.4455 7.51627L25.3174 6.29567L26.1893 5.07507C25.68 4.71129 25.0947 4.53567 24.4854 4.53567V6.03567ZM25.3174 6.29567L24.5457 7.58191C24.4548 7.5274 24.3496 7.42961 24.2776 7.29031C24.2103 7.16025 24.2074 7.06293 24.2074 7.04967H25.7074H27.2074C27.2074 6.26597 26.873 5.47976 26.0891 5.00943L25.3174 6.29567ZM25.7074 7.04967H24.2074V27.4857H25.7074H27.2074V7.04967H25.7074ZM25.7074 27.4857H24.2074C24.2074 27.4724 24.2103 27.3751 24.2776 27.245C24.3496 27.1057 24.4548 27.0079 24.5457 26.9534L25.3174 28.2397L26.0892 29.5259C26.873 29.0556 27.2074 28.2694 27.2074 27.4857H25.7074ZM25.3174 28.2397L24.4455 27.0191C24.447 27.018 24.4512 27.0152 24.4581 27.0118C24.465 27.0083 24.4725 27.0053 24.48 27.003C24.4874 27.0006 24.4926 26.9997 24.4947 26.9994C24.4966 26.9991 24.4938 26.9997 24.4854 26.9997V28.4997V29.9997C25.0947 29.9997 25.68 29.8241 26.1893 29.4603L25.3174 28.2397ZM24.4854 28.4997V26.9997C24.4854 26.9997 24.486 26.9997 24.4873 26.9998C24.4887 26.9999 24.4904 27 24.4924 27.0003C24.4966 27.001 24.5007 27.002 24.5038 27.003C24.5069 27.0039 24.5074 27.0044 24.505 27.0032C24.5025 27.002 24.496 26.9986 24.4855 26.9916L23.6534 28.2397L22.8214 29.4877C23.3121 29.8149 23.8763 29.9997 24.4854 29.9997V28.4997ZM23.6534 28.2397L24.4645 26.9779C24.5676 27.0442 24.6675 27.15 24.7312 27.282C24.76 27.3417 24.7748 27.3931 24.7822 27.4295C24.7894 27.4652 24.7894 27.4855 24.7894 27.4857H23.2894H21.7894C21.7894 28.2237 22.0789 29.0107 22.8423 29.5014L23.6534 28.2397ZM23.2894 27.4857H24.7894V7.04967H23.2894H21.7894V27.4857H23.2894ZM23.2894 7.04967H24.7894C24.7894 7.04989 24.7894 7.07018 24.7822 7.10582C24.7748 7.14225 24.76 7.19369 24.7312 7.25329C24.6675 7.38538 24.5676 7.49116 24.4645 7.55744L23.6534 6.29567L22.8423 5.0339C22.0789 5.52463 21.7894 6.31164 21.7894 7.04967H23.2894ZM23.6534 6.29567L24.4855 7.54374C24.496 7.53674 24.5025 7.53337 24.505 7.53216C24.5074 7.53098 24.5069 7.53142 24.5038 7.53239C24.5007 7.53338 24.4966 7.53435 24.4924 7.53499C24.4904 7.5353 24.4887 7.53548 24.4873 7.53557C24.486 7.53567 24.4854 7.53567 24.4854 7.53567V6.03567V4.53567C23.8763 4.53567 23.3121 4.72044 22.8214 5.0476L23.6534 6.29567ZM19.9094 6.29567V7.79567C19.9094 7.79567 19.9084 7.79567 19.9062 7.79551C19.9041 7.79535 19.9011 7.79505 19.8974 7.79448C19.8898 7.7933 19.8808 7.79128 19.8714 7.78823C19.8507 7.78155 19.8408 7.77428 19.8435 7.77627L20.7154 6.55567L21.5873 5.33507C21.0935 4.98237 20.5207 4.79567 19.9094 4.79567V6.29567ZM20.7154 6.55567L19.9437 7.84191C19.8528 7.7874 19.7476 7.68961 19.6756 7.55031C19.6083 7.42025 19.6054 7.32293 19.6054 7.30967H21.1054H22.6054C22.6054 6.52597 22.271 5.73976 21.4872 5.26943L20.7154 6.55567ZM21.1054 7.30967H19.6054V26.3937H21.1054H22.6054V7.30967H21.1054ZM21.1054 26.3937H19.6054C19.6054 26.3804 19.6083 26.2831 19.6756 26.153C19.7476 26.0137 19.8528 25.9159 19.9437 25.8614L20.7154 27.1477L21.4872 28.4339C22.271 27.9636 22.6054 27.1774 22.6054 26.3937H21.1054ZM20.7154 27.1477L19.8435 25.9271C19.8408 25.9291 19.8507 25.9218 19.8714 25.9151C19.8808 25.9121 19.8898 25.91 19.8974 25.9089C19.9011 25.9083 19.9041 25.908 19.9062 25.9078C19.9084 25.9077 19.9094 25.9077 19.9094 25.9077V27.4077V28.9077C20.5207 28.9077 21.0935 28.721 21.5873 28.3683L20.7154 27.1477ZM19.9094 27.4077V25.9077C19.9094 25.9077 19.91 25.9077 19.9113 25.9078C19.9127 25.9079 19.9144 25.908 19.9164 25.9083C19.9206 25.909 19.9247 25.91 19.9278 25.911C19.9309 25.9119 19.9314 25.9124 19.929 25.9112C19.9265 25.91 19.92 25.9066 19.9095 25.8996L19.0774 27.1477L18.2454 28.3957C18.7361 28.7229 19.3003 28.9077 19.9094 28.9077V27.4077ZM19.0774 27.1477L19.8885 25.8859C19.9916 25.9522 20.0915 26.058 20.1552 26.19C20.184 26.2497 20.1988 26.3011 20.2062 26.3375C20.2134 26.3732 20.2134 26.3935 20.2134 26.3937H18.7134H17.2134C17.2134 27.1317 17.5029 27.9187 18.2663 28.4094L19.0774 27.1477ZM18.7134 26.3937H20.2134V19.0357H18.7134H17.2134V26.3937H18.7134ZM18.7134 19.0357V17.5357H14.3194V19.0357V20.5357H18.7134V19.0357ZM14.3194 19.0357H15.8194V16.8517H14.3194H12.8194V19.0357H14.3194ZM14.3194 16.8517V18.3517H18.7134V16.8517V15.3517H14.3194V16.8517ZM18.7134 16.8517H20.2134V13.4197H18.7134H17.2134V16.8517H18.7134ZM18.7134 13.4197V11.9197H14.3194V13.4197V14.9197H18.7134V13.4197ZM14.3194 13.4197H15.8194V11.2357H14.3194H12.8194V13.4197H14.3194ZM14.3194 11.2357V12.7357H18.7134V11.2357V9.73567H14.3194V11.2357ZM18.7134 11.2357H20.2134V7.30967H18.7134H17.2134V11.2357H18.7134ZM18.7134 7.30967H20.2134C20.2134 7.30989 20.2134 7.33018 20.2062 7.36582C20.1988 7.40225 20.184 7.45369 20.1552 7.5133C20.0915 7.64538 19.9916 7.75116 19.8885 7.81744L19.0774 6.55567L18.2663 5.2939C17.5029 5.78463 17.2134 6.57163 17.2134 7.30967H18.7134ZM19.0774 6.55567L19.9095 7.80375C19.92 7.79675 19.9265 7.79338 19.929 7.79216C19.9314 7.79098 19.9309 7.79142 19.9278 7.79239C19.9247 7.79338 19.9206 7.79435 19.9164 7.79499C19.9144 7.7953 19.9127 7.79548 19.9113 7.79557C19.91 7.79567 19.9094 7.79567 19.9094 7.79567V6.29567V4.79567C19.3003 4.79567 18.7361 4.98044 18.2454 5.3076L19.0774 6.55567Z" fill="black" mask="url(#path-2-inside-1_210_2)"/>
</svg>
